# xmcd
#
# Track frame offsets: 
#        182
#        22332
#        39265
#        67660
#        89640
#        100797
#        117955
#        141700
#        162680
#        180365
#        193752
#        208287
#        232007
#
# Disc length: 3316 seconds
#
# Revision: 1
# Processed by: cddbd v1.5.2PL0 Copyright (c) Steve Scherf et al.
# Submitted via: ExactAudioCopy v0.99pb4
#
DISCID=c10cf20d
DTITLE=Charly Schreckschuss Band - Hold Me Baby
DYEAR=1900
DGENRE=Blues
TTITLE0=Hold Me Baby
TTITLE1=Lumpenbrüderschaft
TTITLE2=Warum
TTITLE3=Du Wohnst Jetzt Nicht Mehr Hier
TTITLE4=König Alkohol
TTITLE5=Charly's Boogie
TTITLE6=Madame Coulou
TTITLE7=Und Jetzt Küsst Mich Nur Noch Der Blues
TTITLE8=Ohne Mich
TTITLE9=Sechserpack
TTITLE10=Morgen Früh Bin Ich Nicht Mehr Da
TTITLE11=Unterwegs
TTITLE12=Jeden Tag Hab Ich Den Blues
EXTD=
EXTT0=
EXTT1=
EXTT2=
EXTT3=
EXTT4=
EXTT5=
EXTT6=
EXTT7=
EXTT8=
EXTT9=
EXTT10=
EXTT11=
EXTT12=
PLAYORDER=
